<svg width="512" height="512" viewBox="0 0 512 512" fill="none" xmlns="http://www.w3.org/2000/svg">
<path d="M410.291 231.05L421.591 219.75L387.691 185.85L325.591 123.75L291.691 89.85L280.391 101.15L257.791 123.75L58.5912 322.95C48.1912 333.35 40.5912 346.25 36.3912 360.35L0.991172 480.75C-1.50883 489.15 0.791172 498.25 7.09117 504.45C13.3912 510.65 22.3912 512.95 30.7912 510.55L151.091 475.15C165.191 470.95 178.091 463.35 188.491 452.95L387.691 253.75L410.291 231.05ZM159.991 399.45L150.891 422.15C146.891 425.25 142.391 427.55 137.591 429.05L59.3912 452.05L82.3912 373.95C83.7912 369.05 86.1912 364.55 89.2912 360.65L111.991 351.55V383.55C111.991 392.35 119.191 399.55 127.991 399.55H159.991V399.45ZM362.691 18.75L348.291 33.25L325.691 55.85L314.291 67.15L348.191 101.05L410.291 163.15L444.191 197.05L455.491 185.75L478.091 163.15L492.591 148.65C517.591 123.65 517.591 83.15 492.591 58.15L453.291 18.75C428.291 -6.25 387.791 -6.25 362.791 18.75H362.691ZM315.291 186.75L171.291 330.75C165.091 336.95 154.891 336.95 148.691 330.75C142.491 324.55 142.491 314.35 148.691 308.15L292.691 164.15C298.891 157.95 309.091 157.95 315.291 164.15C321.491 170.35 321.491 180.55 315.291 186.75Z" fill="#DAA404"/>
</svg>
